<svg xmlns="http://www.w3.org/2000/svg" width="800" height="850"><rect width="800" height="850" x="0" y="0" fill="#FFFFFF" id="background"/><g transform="translate(-5,10)" id="viz"><g id="links"><path d="M0,493.3179806494452C56.875,493.3179806494452,56.875,493.3179806494452,113.75,493.3179806494452" fill="none" stroke="#ccc"/><path d="M113.75,493.3179806494452C170.625,493.3179806494452,170.625,243.91848302889062,227.5,243.91848302889062" fill="none" stroke="#ccc"/><path d="M113.75,493.3179806494452C170.625,493.3179806494452,170.625,532.2942704877789,227.5,532.2942704877789" fill="none" stroke="#ccc"/><path d="M113.75,493.3179806494452C170.625,493.3179806494452,170.625,742.7174782699999,227.5,742.7174782699999" fill="none" stroke="#ccc"/><path d="M227.5,243.91848302889062C284.375,243.91848302889062,284.375,94.42005794666734,341.25,94.42005794666734" fill="none" stroke="#ccc"/><path d="M227.5,243.91848302889062C284.375,243.91848302889062,284.375,267.5234975155575,341.25,267.5234975155575" fill="none" stroke="#ccc"/><path d="M227.5,243.91848302889062C284.375,243.91848302889062,284.375,361.9435554622248,341.25,361.9435554622248" fill="none" stroke="#ccc"/><path d="M227.5,243.91848302889062C284.375,243.91848302889062,284.375,393.4169081111139,341.25,393.4169081111139" fill="none" stroke="#ccc"/><path d="M227.5,532.2942704877789C284.375,532.2942704877789,284.375,460.7484250822232,341.25,460.7484250822232" fill="none" stroke="#ccc"/><path d="M227.5,532.2942704877789C284.375,532.2942704877789,284.375,533.0250724333341,341.25,533.0250724333341" fill="none" stroke="#ccc"/><path d="M227.5,532.2942704877789C284.375,532.2942704877789,284.375,572.3667632444456,341.25,572.3667632444456" fill="none" stroke="#ccc"/><path d="M227.5,532.2942704877789C284.375,532.2942704877789,284.375,603.8401158933345,341.25,603.8401158933345" fill="none" stroke="#ccc"/><path d="M227.5,742.7174782699999C284.375,742.7174782699999,284.375,671.1716328644441,341.25,671.1716328644441" fill="none" stroke="#ccc"/><path d="M227.5,742.7174782699999C284.375,742.7174782699999,284.375,743.448280215555,341.25,743.448280215555" fill="none" stroke="#ccc"/><path d="M227.5,742.7174782699999C284.375,742.7174782699999,284.375,782.7899710266663,341.25,782.7899710266663" fill="none" stroke="#ccc"/><path d="M227.5,742.7174782699999C284.375,742.7174782699999,284.375,814.2633236755555,341.25,814.2633236755555" fill="none" stroke="#ccc"/><path d="M341.25,94.42005794666734C398.125,94.42005794666734,398.125,7.868338162222302,455,7.868338162222302" fill="none" stroke="#ccc"/><path d="M341.25,94.42005794666734C398.125,94.42005794666734,398.125,23.60501448666685,455,23.60501448666685" fill="none" stroke="#ccc"/><path d="M341.25,94.42005794666734C398.125,94.42005794666734,398.125,39.3416908111114,455,39.3416908111114" fill="none" stroke="#ccc"/><path d="M341.25,94.42005794666734C398.125,94.42005794666734,398.125,55.078367135556,455,55.078367135556" fill="none" stroke="#ccc"/><path d="M341.25,94.42005794666734C398.125,94.42005794666734,398.125,70.81504346000055,455,70.81504346000055" fill="none" stroke="#ccc"/><path d="M341.25,94.42005794666734C398.125,94.42005794666734,398.125,86.5517197844451,455,86.5517197844451" fill="none" stroke="#ccc"/><path d="M341.25,94.42005794666734C398.125,94.42005794666734,398.125,102.28839610888964,455,102.28839610888964" fill="none" stroke="#ccc"/><path d="M341.25,94.42005794666734C398.125,94.42005794666734,398.125,118.02507243333419,455,118.02507243333419" fill="none" stroke="#ccc"/><path d="M341.25,94.42005794666734C398.125,94.42005794666734,398.125,133.7617487577788,455,133.7617487577788" fill="none" stroke="#ccc"/><path d="M341.25,94.42005794666734C398.125,94.42005794666734,398.125,149.4984250822233,455,149.4984250822233" fill="none" stroke="#ccc"/><path d="M341.25,94.42005794666734C398.125,94.42005794666734,398.125,165.2351014066679,455,165.2351014066679" fill="none" stroke="#ccc"/><path d="M341.25,94.42005794666734C398.125,94.42005794666734,398.125,180.97177773111238,455,180.97177773111238" fill="none" stroke="#ccc"/><path d="M341.25,267.5234975155575C398.125,267.5234975155575,398.125,196.70845405555698,455,196.70845405555698" fill="none" stroke="#ccc"/><path d="M341.25,267.5234975155575C398.125,267.5234975155575,398.125,212.44513038000153,455,212.44513038000153" fill="none" stroke="#ccc"/><path d="M341.25,267.5234975155575C398.125,267.5234975155575,398.125,228.18180670444607,455,228.18180670444607" fill="none" stroke="#ccc"/><path d="M341.25,267.5234975155575C398.125,267.5234975155575,398.125,243.91848302889065,455,243.91848302889065" fill="none" stroke="#ccc"/><path d="M341.25,267.5234975155575C398.125,267.5234975155575,398.125,259.65515935333525,455,259.65515935333525" fill="none" stroke="#ccc"/><path d="M341.25,267.5234975155575C398.125,267.5234975155575,398.125,275.3918356777798,455,275.3918356777798" fill="none" stroke="#ccc"/><path d="M341.25,267.5234975155575C398.125,267.5234975155575,398.125,291.12851200222434,455,291.12851200222434" fill="none" stroke="#ccc"/><path d="M341.25,267.5234975155575C398.125,267.5234975155575,398.125,306.8651883266689,455,306.8651883266689" fill="none" stroke="#ccc"/><path d="M341.25,267.5234975155575C398.125,267.5234975155575,398.125,322.60186465111343,455,322.60186465111343" fill="none" stroke="#ccc"/><path d="M341.25,267.5234975155575C398.125,267.5234975155575,398.125,338.33854097555803,455,338.33854097555803" fill="none" stroke="#ccc"/><path d="M341.25,361.9435554622248C398.125,361.9435554622248,398.125,354.0752173000025,455,354.0752173000025" fill="none" stroke="#ccc"/><path d="M341.25,361.9435554622248C398.125,361.9435554622248,398.125,369.81189362444707,455,369.81189362444707" fill="none" stroke="#ccc"/><path d="M341.25,393.4169081111139C398.125,393.4169081111139,398.125,385.5485699488916,455,385.5485699488916" fill="none" stroke="#ccc"/><path d="M341.25,393.4169081111139C398.125,393.4169081111139,398.125,401.28524627333616,455,401.28524627333616" fill="none" stroke="#ccc"/><path d="M341.25,460.7484250822232C398.125,460.7484250822232,398.125,419.9451303800015,455,419.9451303800015" fill="none" stroke="#ccc"/><path d="M341.25,460.7484250822232C398.125,460.7484250822232,398.125,438.6050144866668,455,438.6050144866668" fill="none" stroke="#ccc"/><path d="M341.25,460.7484250822232C398.125,460.7484250822232,398.125,454.34169081111133,455,454.34169081111133" fill="none" stroke="#ccc"/><path d="M341.25,460.7484250822232C398.125,460.7484250822232,398.125,470.07836713555594,455,470.07836713555594" fill="none" stroke="#ccc"/><path d="M341.25,460.7484250822232C398.125,460.7484250822232,398.125,485.8150434600005,455,485.8150434600005" fill="none" stroke="#ccc"/><path d="M341.25,460.7484250822232C398.125,460.7484250822232,398.125,501.551719784445,455,501.551719784445" fill="none" stroke="#ccc"/><path d="M341.25,533.0250724333341C398.125,533.0250724333341,398.125,517.2883961088895,455,517.2883961088895" fill="none" stroke="#ccc"/><path d="M341.25,533.0250724333341C398.125,533.0250724333341,398.125,533.0250724333341,455,533.0250724333341" fill="none" stroke="#ccc"/><path d="M341.25,533.0250724333341C398.125,533.0250724333341,398.125,548.7617487577787,455,548.7617487577787" fill="none" stroke="#ccc"/><path d="M341.25,572.3667632444456C398.125,572.3667632444456,398.125,564.4984250822232,455,564.4984250822232" fill="none" stroke="#ccc"/><path d="M341.25,572.3667632444456C398.125,572.3667632444456,398.125,580.2351014066678,455,580.2351014066678" fill="none" stroke="#ccc"/><path d="M341.25,603.8401158933345C398.125,603.8401158933345,398.125,595.9717777311123,455,595.9717777311123" fill="none" stroke="#ccc"/><path d="M341.25,603.8401158933345C398.125,603.8401158933345,398.125,611.7084540555569,455,611.7084540555569" fill="none" stroke="#ccc"/><path d="M341.25,671.1716328644441C398.125,671.1716328644441,398.125,630.3683381622224,455,630.3683381622224" fill="none" stroke="#ccc"/><path d="M341.25,671.1716328644441C398.125,671.1716328644441,398.125,649.0282222688876,455,649.0282222688876" fill="none" stroke="#ccc"/><path d="M341.25,671.1716328644441C398.125,671.1716328644441,398.125,664.7648985933322,455,664.7648985933322" fill="none" stroke="#ccc"/><path d="M341.25,671.1716328644441C398.125,671.1716328644441,398.125,680.5015749177768,455,680.5015749177768" fill="none" stroke="#ccc"/><path d="M341.25,671.1716328644441C398.125,671.1716328644441,398.125,696.2382512422213,455,696.2382512422213" fill="none" stroke="#ccc"/><path d="M341.25,671.1716328644441C398.125,671.1716328644441,398.125,711.9749275666659,455,711.9749275666659" fill="none" stroke="#ccc"/><path d="M341.25,743.448280215555C398.125,743.448280215555,398.125,727.7116038911105,455,727.7116038911105" fill="none" stroke="#ccc"/><path d="M341.25,743.448280215555C398.125,743.448280215555,398.125,743.448280215555,455,743.448280215555" fill="none" stroke="#ccc"/><path d="M341.25,743.448280215555C398.125,743.448280215555,398.125,759.1849565399995,455,759.1849565399995" fill="none" stroke="#ccc"/><path d="M341.25,782.7899710266663C398.125,782.7899710266663,398.125,774.9216328644442,455,774.9216328644442" fill="none" stroke="#ccc"/><path d="M341.25,782.7899710266663C398.125,782.7899710266663,398.125,790.6583091888887,455,790.6583091888887" fill="none" stroke="#ccc"/><path d="M341.25,814.2633236755555C398.125,814.2633236755555,398.125,806.3949855133332,455,806.3949855133332" fill="none" stroke="#ccc"/><path d="M341.25,814.2633236755555C398.125,814.2633236755555,398.125,822.1316618377778,455,822.1316618377778" fill="none" stroke="#ccc"/></g><g id="nodes"><g transform="translate(0,493.3179806494452)"><circle fill="#ccc" r="5"/><text text-anchor="end" dominant-baseline="text-before-edge" transform="translate(0,0)"><tspan x="-8" y="0" dy="0" style="font-family: Arial, sans-serif; font-size: 10px; fill: black; font-weight: normal;"/></text></g><g id="urinary bladder" transform="translate(113.75,493.3179806494452)"><circle fill="#ccc" r="5"/><text text-anchor="end" dominant-baseline="text-before-edge" transform="translate(0,-5.55224609375)"><tspan x="-8" y="0" dy="0" style="font-family: Arial, sans-serif; font-size: 10px; fill: black; font-weight: normal;">urinary bladder</tspan></text></g><g id="Arteriole in connective tissue of bladder neck" transform="translate(227.5,243.91848302889062)"><circle fill="#1f77b4" r="5"/><text text-anchor="end" dominant-baseline="text-before-edge" transform="translate(0,-5.5)"><tspan x="-8" y="0" dy="0" style="font-family: Arial, sans-serif; font-size: 10px; fill: black; font-weight: normal;">Arteriole in connective tissue of bladder neck</tspan></text></g><g id="Dome of the Bladder" transform="translate(227.5,532.2942704877789)"><circle fill="#ff7f0e" r="5"/><text text-anchor="end" dominant-baseline="text-before-edge" transform="translate(0,-5.5)"><tspan x="-8" y="0" dy="0" style="font-family: Arial, sans-serif; font-size: 10px; fill: black; font-weight: normal;">Dome of the Bladder</tspan></text></g><g id="neck of urinary bladder" transform="translate(227.5,742.7174782699999)"><circle fill="#2ca02c" r="5"/><text text-anchor="end" dominant-baseline="text-before-edge" transform="translate(0,-5.55224609375)"><tspan x="-8" y="0" dy="0" style="font-family: Arial, sans-serif; font-size: 10px; fill: black; font-weight: normal;">neck of urinary bladder</tspan></text></g><g id="bladder nerve" transform="translate(341.25,94.42005794666734)"><circle fill="#1f77b4" r="5"/><text text-anchor="end" dominant-baseline="text-before-edge" transform="translate(0,-5.5)"><tspan x="-8" y="0" dy="0" style="font-family: Arial, sans-serif; font-size: 10px; fill: black; font-weight: normal;">bladder nerve</tspan></text></g><g id="pelvic splanchnic nerve" transform="translate(341.25,267.5234975155575)"><circle fill="#1f77b4" r="5"/><text text-anchor="end" dominant-baseline="text-before-edge" transform="translate(0,-5.5)"><tspan x="-8" y="0" dy="0" style="font-family: Arial, sans-serif; font-size: 10px; fill: black; font-weight: normal;">pelvic splanchnic nerve</tspan></text></g><g id="hypogastric nerve" transform="translate(341.25,361.9435554622248)"><circle fill="#1f77b4" r="5"/><text text-anchor="end" dominant-baseline="text-before-edge" transform="translate(0,-5.55224609375)"><tspan x="-8" y="0" dy="0" style="font-family: Arial, sans-serif; font-size: 10px; fill: black; font-weight: normal;">hypogastric nerve</tspan></text></g><g id="lumbar splanchnic nerve" transform="translate(341.25,393.4169081111139)"><circle fill="#1f77b4" r="5"/><text text-anchor="end" dominant-baseline="text-before-edge" transform="translate(0,-5.5)"><tspan x="-8" y="0" dy="0" style="font-family: Arial, sans-serif; font-size: 10px; fill: black; font-weight: normal;">lumbar splanchnic nerve</tspan></text></g><g id="bladder nerve" transform="translate(341.25,460.7484250822232)"><circle fill="#ff7f0e" r="5"/><text text-anchor="end" dominant-baseline="text-before-edge" transform="translate(0,-5.5)"><tspan x="-8" y="0" dy="0" style="font-family: Arial, sans-serif; font-size: 10px; fill: black; font-weight: normal;">bladder nerve</tspan></text></g><g id="hypogastric nerve" transform="translate(341.25,533.0250724333341)"><circle fill="#ff7f0e" r="5"/><text text-anchor="end" dominant-baseline="text-before-edge" transform="translate(0,-5.55224609375)"><tspan x="-8" y="0" dy="0" style="font-family: Arial, sans-serif; font-size: 10px; fill: black; font-weight: normal;">hypogastric nerve</tspan></text></g><g id="pelvic splanchnic nerve" transform="translate(341.25,572.3667632444456)"><circle fill="#ff7f0e" r="5"/><text text-anchor="end" dominant-baseline="text-before-edge" transform="translate(0,-5.5)"><tspan x="-8" y="0" dy="0" style="font-family: Arial, sans-serif; font-size: 10px; fill: black; font-weight: normal;">pelvic splanchnic nerve</tspan></text></g><g id="lumbar splanchnic nerve" transform="translate(341.25,603.8401158933345)"><circle fill="#ff7f0e" r="5"/><text text-anchor="end" dominant-baseline="text-before-edge" transform="translate(0,-5.5)"><tspan x="-8" y="0" dy="0" style="font-family: Arial, sans-serif; font-size: 10px; fill: black; font-weight: normal;">lumbar splanchnic nerve</tspan></text></g><g id="bladder nerve" transform="translate(341.25,671.1716328644441)"><circle fill="#2ca02c" r="5"/><text text-anchor="end" dominant-baseline="text-before-edge" transform="translate(0,-5.5)"><tspan x="-8" y="0" dy="0" style="font-family: Arial, sans-serif; font-size: 10px; fill: black; font-weight: normal;">bladder nerve</tspan></text></g><g id="hypogastric nerve" transform="translate(341.25,743.448280215555)"><circle fill="#2ca02c" r="5"/><text text-anchor="end" dominant-baseline="text-before-edge" transform="translate(0,-5.55224609375)"><tspan x="-8" y="0" dy="0" style="font-family: Arial, sans-serif; font-size: 10px; fill: black; font-weight: normal;">hypogastric nerve</tspan></text></g><g id="pelvic splanchnic nerve" transform="translate(341.25,782.7899710266663)"><circle fill="#2ca02c" r="5"/><text text-anchor="end" dominant-baseline="text-before-edge" transform="translate(0,-5.5)"><tspan x="-8" y="0" dy="0" style="font-family: Arial, sans-serif; font-size: 10px; fill: black; font-weight: normal;">pelvic splanchnic nerve</tspan></text></g><g id="lumbar splanchnic nerve" transform="translate(341.25,814.2633236755555)"><circle fill="#2ca02c" r="5"/><text text-anchor="end" dominant-baseline="text-before-edge" transform="translate(0,-5.5)"><tspan x="-8" y="0" dy="0" style="font-family: Arial, sans-serif; font-size: 10px; fill: black; font-weight: normal;">lumbar splanchnic nerve</tspan></text></g><g id="first sacral dorsal root ganglion" transform="translate(455,7.868338162222302)"><circle fill="#1f77b4" r="7.071067811865475"/><text text-anchor="start" dominant-baseline="text-before-edge" transform="translate(0,-5.55224609375)"><tspan x="9.071067811865476" y="0" dy="0" style="font-family: Arial, sans-serif; font-size: 10px; fill: black; font-weight: bold;">first sacral dorsal root ganglion</tspan></text></g><g id="sixth lumbar dorsal root ganglion" transform="translate(455,23.60501448666685)"><circle fill="#1f77b4" r="7.071067811865475"/><text text-anchor="start" dominant-baseline="text-before-edge" transform="translate(0,-5.55224609375)"><tspan x="9.071067811865476" y="0" dy="0" style="font-family: Arial, sans-serif; font-size: 10px; fill: black; font-weight: bold;">sixth lumbar dorsal root ganglion</tspan></text></g><g id="first lumbar dorsal root ganglion" transform="translate(455,39.3416908111114)"><circle fill="#1f77b4" r="7.071067811865475"/><text text-anchor="start" dominant-baseline="text-before-edge" transform="translate(0,-5.55224609375)"><tspan x="9.071067811865476" y="0" dy="0" style="font-family: Arial, sans-serif; font-size: 10px; fill: black; font-weight: bold;">first lumbar dorsal root ganglion</tspan></text></g><g id="second lumbar dorsal root ganglion" transform="translate(455,55.078367135556)"><circle fill="#1f77b4" r="7.071067811865475"/><text text-anchor="start" dominant-baseline="text-before-edge" transform="translate(0,-5.55224609375)"><tspan x="9.071067811865476" y="0" dy="0" style="font-family: Arial, sans-serif; font-size: 10px; fill: black; font-weight: bold;">second lumbar dorsal root ganglion</tspan></text></g><g id="First lumbar ganglion" transform="translate(455,70.81504346000055)"><circle fill="#1f77b4" r="7.071067811865475"/><text text-anchor="start" dominant-baseline="text-before-edge" transform="translate(0,-5.55224609375)"><tspan x="9.071067811865476" y="0" dy="0" style="font-family: Arial, sans-serif; font-size: 10px; fill: black; font-weight: bold;">First lumbar ganglion</tspan></text></g><g id="Fourth lumbar ganglion" transform="translate(455,86.5517197844451)"><circle fill="#1f77b4" r="7.071067811865475"/><text text-anchor="start" dominant-baseline="text-before-edge" transform="translate(0,-5.55224609375)"><tspan x="9.071067811865476" y="0" dy="0" style="font-family: Arial, sans-serif; font-size: 10px; fill: black; font-weight: bold;">Fourth lumbar ganglion</tspan></text></g><g id="Second lumbar ganglion" transform="translate(455,102.28839610888964)"><circle fill="#1f77b4" r="7.071067811865475"/><text text-anchor="start" dominant-baseline="text-before-edge" transform="translate(0,-5.55224609375)"><tspan x="9.071067811865476" y="0" dy="0" style="font-family: Arial, sans-serif; font-size: 10px; fill: black; font-weight: bold;">Second lumbar ganglion</tspan></text></g><g id="Third lumbar ganglion" transform="translate(455,118.02507243333419)"><circle fill="#1f77b4" r="7.071067811865475"/><text text-anchor="start" dominant-baseline="text-before-edge" transform="translate(0,-5.55224609375)"><tspan x="9.071067811865476" y="0" dy="0" style="font-family: Arial, sans-serif; font-size: 10px; fill: black; font-weight: bold;">Third lumbar ganglion</tspan></text></g><g id="Thirteenth thoracic ganglion" transform="translate(455,133.7617487577788)"><circle fill="#1f77b4" r="7.071067811865475"/><text text-anchor="start" dominant-baseline="text-before-edge" transform="translate(0,-5.55224609375)"><tspan x="9.071067811865476" y="0" dy="0" style="font-family: Arial, sans-serif; font-size: 10px; fill: black; font-weight: bold;">Thirteenth thoracic ganglion</tspan></text></g><g id="Twelfth thoracic ganglion" transform="translate(455,149.4984250822233)"><circle fill="#1f77b4" r="7.071067811865475"/><text text-anchor="start" dominant-baseline="text-before-edge" transform="translate(0,-5.55224609375)"><tspan x="9.071067811865476" y="0" dy="0" style="font-family: Arial, sans-serif; font-size: 10px; fill: black; font-weight: bold;">Twelfth thoracic ganglion</tspan></text></g><g id="fifth lumbar sympathetic ganglion" transform="translate(455,165.2351014066679)"><circle fill="#1f77b4" r="7.071067811865475"/><text text-anchor="start" dominant-baseline="text-before-edge" transform="translate(0,-5.55224609375)"><tspan x="9.071067811865476" y="0" dy="0" style="font-family: Arial, sans-serif; font-size: 10px; fill: black; font-weight: bold;">fifth lumbar sympathetic ganglion</tspan></text></g><g id="sixth lumbar sympathetic ganglion" transform="translate(455,180.97177773111238)"><circle fill="#1f77b4" r="7.071067811865475"/><text text-anchor="start" dominant-baseline="text-before-edge" transform="translate(0,-5.55224609375)"><tspan x="9.071067811865476" y="0" dy="0" style="font-family: Arial, sans-serif; font-size: 10px; fill: black; font-weight: bold;">sixth lumbar sympathetic ganglion</tspan></text></g><g id="first sacral dorsal root ganglion" transform="translate(455,196.70845405555698)"><circle fill="#1f77b4" r="7.071067811865475"/><text text-anchor="start" dominant-baseline="text-before-edge" transform="translate(0,-5.55224609375)"><tspan x="9.071067811865476" y="0" dy="0" style="font-family: Arial, sans-serif; font-size: 10px; fill: black; font-weight: bold;">first sacral dorsal root ganglion</tspan></text></g><g id="sixth lumbar dorsal root ganglion" transform="translate(455,212.44513038000153)"><circle fill="#1f77b4" r="7.071067811865475"/><text text-anchor="start" dominant-baseline="text-before-edge" transform="translate(0,-5.55224609375)"><tspan x="9.071067811865476" y="0" dy="0" style="font-family: Arial, sans-serif; font-size: 10px; fill: black; font-weight: bold;">sixth lumbar dorsal root ganglion</tspan></text></g><g id="First lumbar ganglion" transform="translate(455,228.18180670444607)"><circle fill="#1f77b4" r="7.071067811865475"/><text text-anchor="start" dominant-baseline="text-before-edge" transform="translate(0,-5.55224609375)"><tspan x="9.071067811865476" y="0" dy="0" style="font-family: Arial, sans-serif; font-size: 10px; fill: black; font-weight: bold;">First lumbar ganglion</tspan></text></g><g id="Fourth lumbar ganglion" transform="translate(455,243.91848302889065)"><circle fill="#1f77b4" r="7.071067811865475"/><text text-anchor="start" dominant-baseline="text-before-edge" transform="translate(0,-5.55224609375)"><tspan x="9.071067811865476" y="0" dy="0" style="font-family: Arial, sans-serif; font-size: 10px; fill: black; font-weight: bold;">Fourth lumbar ganglion</tspan></text></g><g id="Second lumbar ganglion" transform="translate(455,259.65515935333525)"><circle fill="#1f77b4" r="7.071067811865475"/><text text-anchor="start" dominant-baseline="text-before-edge" transform="translate(0,-5.55224609375)"><tspan x="9.071067811865476" y="0" dy="0" style="font-family: Arial, sans-serif; font-size: 10px; fill: black; font-weight: bold;">Second lumbar ganglion</tspan></text></g><g id="Third lumbar ganglion" transform="translate(455,275.3918356777798)"><circle fill="#1f77b4" r="7.071067811865475"/><text text-anchor="start" dominant-baseline="text-before-edge" transform="translate(0,-5.55224609375)"><tspan x="9.071067811865476" y="0" dy="0" style="font-family: Arial, sans-serif; font-size: 10px; fill: black; font-weight: bold;">Third lumbar ganglion</tspan></text></g><g id="Thirteenth thoracic ganglion" transform="translate(455,291.12851200222434)"><circle fill="#1f77b4" r="7.071067811865475"/><text text-anchor="start" dominant-baseline="text-before-edge" transform="translate(0,-5.55224609375)"><tspan x="9.071067811865476" y="0" dy="0" style="font-family: Arial, sans-serif; font-size: 10px; fill: black; font-weight: bold;">Thirteenth thoracic ganglion</tspan></text></g><g id="Twelfth thoracic ganglion" transform="translate(455,306.8651883266689)"><circle fill="#1f77b4" r="7.071067811865475"/><text text-anchor="start" dominant-baseline="text-before-edge" transform="translate(0,-5.55224609375)"><tspan x="9.071067811865476" y="0" dy="0" style="font-family: Arial, sans-serif; font-size: 10px; fill: black; font-weight: bold;">Twelfth thoracic ganglion</tspan></text></g><g id="fifth lumbar sympathetic ganglion" transform="translate(455,322.60186465111343)"><circle fill="#1f77b4" r="7.071067811865475"/><text text-anchor="start" dominant-baseline="text-before-edge" transform="translate(0,-5.55224609375)"><tspan x="9.071067811865476" y="0" dy="0" style="font-family: Arial, sans-serif; font-size: 10px; fill: black; font-weight: bold;">fifth lumbar sympathetic ganglion</tspan></text></g><g id="sixth lumbar sympathetic ganglion" transform="translate(455,338.33854097555803)"><circle fill="#1f77b4" r="7.071067811865475"/><text text-anchor="start" dominant-baseline="text-before-edge" transform="translate(0,-5.55224609375)"><tspan x="9.071067811865476" y="0" dy="0" style="font-family: Arial, sans-serif; font-size: 10px; fill: black; font-weight: bold;">sixth lumbar sympathetic ganglion</tspan></text></g><g id="first lumbar dorsal root ganglion" transform="translate(455,354.0752173000025)"><circle fill="#1f77b4" r="7.071067811865475"/><text text-anchor="start" dominant-baseline="text-before-edge" transform="translate(0,-5.55224609375)"><tspan x="9.071067811865476" y="0" dy="0" style="font-family: Arial, sans-serif; font-size: 10px; fill: black; font-weight: bold;">first lumbar dorsal root ganglion</tspan></text></g><g id="second lumbar dorsal root ganglion" transform="translate(455,369.81189362444707)"><circle fill="#1f77b4" r="7.071067811865475"/><text text-anchor="start" dominant-baseline="text-before-edge" transform="translate(0,-5.55224609375)"><tspan x="9.071067811865476" y="0" dy="0" style="font-family: Arial, sans-serif; font-size: 10px; fill: black; font-weight: bold;">second lumbar dorsal root ganglion</tspan></text></g><g id="first lumbar dorsal root ganglion" transform="translate(455,385.5485699488916)"><circle fill="#1f77b4" r="7.071067811865475"/><text text-anchor="start" dominant-baseline="text-before-edge" transform="translate(0,-5.55224609375)"><tspan x="9.071067811865476" y="0" dy="0" style="font-family: Arial, sans-serif; font-size: 10px; fill: black; font-weight: bold;">first lumbar dorsal root ganglion</tspan></text></g><g id="second lumbar dorsal root ganglion" transform="translate(455,401.28524627333616)"><circle fill="#1f77b4" r="7.071067811865475"/><text text-anchor="start" dominant-baseline="text-before-edge" transform="translate(0,-5.55224609375)"><tspan x="9.071067811865476" y="0" dy="0" style="font-family: Arial, sans-serif; font-size: 10px; fill: black; font-weight: bold;">second lumbar dorsal root ganglion</tspan></text></g><g id="pelvic ganglion" transform="translate(455,419.9451303800015)"><circle fill="#ff7f0e" r="10"/><text text-anchor="start" dominant-baseline="text-before-edge" transform="translate(0,-5.55224609375)"><tspan x="12" y="0" dy="0" style="font-family: Arial, sans-serif; font-size: 10px; fill: black; font-weight: bold;">pelvic ganglion</tspan></text></g><g id="first sacral dorsal root ganglion" transform="translate(455,438.6050144866668)"><circle fill="#ff7f0e" r="7.071067811865475"/><text text-anchor="start" dominant-baseline="text-before-edge" transform="translate(0,-5.55224609375)"><tspan x="9.071067811865476" y="0" dy="0" style="font-family: Arial, sans-serif; font-size: 10px; fill: black; font-weight: bold;">first sacral dorsal root ganglion</tspan></text></g><g id="sixth lumbar dorsal root ganglion" transform="translate(455,454.34169081111133)"><circle fill="#ff7f0e" r="7.071067811865475"/><text text-anchor="start" dominant-baseline="text-before-edge" transform="translate(0,-5.55224609375)"><tspan x="9.071067811865476" y="0" dy="0" style="font-family: Arial, sans-serif; font-size: 10px; fill: black; font-weight: bold;">sixth lumbar dorsal root ganglion</tspan></text></g><g id="first lumbar dorsal root ganglion" transform="translate(455,470.07836713555594)"><circle fill="#ff7f0e" r="7.071067811865475"/><text text-anchor="start" dominant-baseline="text-before-edge" transform="translate(0,-5.55224609375)"><tspan x="9.071067811865476" y="0" dy="0" style="font-family: Arial, sans-serif; font-size: 10px; fill: black; font-weight: bold;">first lumbar dorsal root ganglion</tspan></text></g><g id="second lumbar dorsal root ganglion" transform="translate(455,485.8150434600005)"><circle fill="#ff7f0e" r="7.071067811865475"/><text text-anchor="start" dominant-baseline="text-before-edge" transform="translate(0,-5.55224609375)"><tspan x="9.071067811865476" y="0" dy="0" style="font-family: Arial, sans-serif; font-size: 10px; fill: black; font-weight: bold;">second lumbar dorsal root ganglion</tspan></text></g><g id="inferior mesenteric ganglion" transform="translate(455,501.551719784445)"><circle fill="#ff7f0e" r="7.071067811865475"/><text text-anchor="start" dominant-baseline="text-before-edge" transform="translate(0,-5.55224609375)"><tspan x="9.071067811865476" y="0" dy="0" style="font-family: Arial, sans-serif; font-size: 10px; fill: black; font-weight: bold;">inferior mesenteric ganglion</tspan></text></g><g id="first lumbar dorsal root ganglion" transform="translate(455,517.2883961088895)"><circle fill="#ff7f0e" r="7.071067811865475"/><text text-anchor="start" dominant-baseline="text-before-edge" transform="translate(0,-5.55224609375)"><tspan x="9.071067811865476" y="0" dy="0" style="font-family: Arial, sans-serif; font-size: 10px; fill: black; font-weight: bold;">first lumbar dorsal root ganglion</tspan></text></g><g id="second lumbar dorsal root ganglion" transform="translate(455,533.0250724333341)"><circle fill="#ff7f0e" r="7.071067811865475"/><text text-anchor="start" dominant-baseline="text-before-edge" transform="translate(0,-5.55224609375)"><tspan x="9.071067811865476" y="0" dy="0" style="font-family: Arial, sans-serif; font-size: 10px; fill: black; font-weight: bold;">second lumbar dorsal root ganglion</tspan></text></g><g id="inferior mesenteric ganglion" transform="translate(455,548.7617487577787)"><circle fill="#ff7f0e" r="7.071067811865475"/><text text-anchor="start" dominant-baseline="text-before-edge" transform="translate(0,-5.55224609375)"><tspan x="9.071067811865476" y="0" dy="0" style="font-family: Arial, sans-serif; font-size: 10px; fill: black; font-weight: bold;">inferior mesenteric ganglion</tspan></text></g><g id="first sacral dorsal root ganglion" transform="translate(455,564.4984250822232)"><circle fill="#ff7f0e" r="7.071067811865475"/><text text-anchor="start" dominant-baseline="text-before-edge" transform="translate(0,-5.55224609375)"><tspan x="9.071067811865476" y="0" dy="0" style="font-family: Arial, sans-serif; font-size: 10px; fill: black; font-weight: bold;">first sacral dorsal root ganglion</tspan></text></g><g id="sixth lumbar dorsal root ganglion" transform="translate(455,580.2351014066678)"><circle fill="#ff7f0e" r="7.071067811865475"/><text text-anchor="start" dominant-baseline="text-before-edge" transform="translate(0,-5.55224609375)"><tspan x="9.071067811865476" y="0" dy="0" style="font-family: Arial, sans-serif; font-size: 10px; fill: black; font-weight: bold;">sixth lumbar dorsal root ganglion</tspan></text></g><g id="first lumbar dorsal root ganglion" transform="translate(455,595.9717777311123)"><circle fill="#ff7f0e" r="7.071067811865475"/><text text-anchor="start" dominant-baseline="text-before-edge" transform="translate(0,-5.55224609375)"><tspan x="9.071067811865476" y="0" dy="0" style="font-family: Arial, sans-serif; font-size: 10px; fill: black; font-weight: bold;">first lumbar dorsal root ganglion</tspan></text></g><g id="second lumbar dorsal root ganglion" transform="translate(455,611.7084540555569)"><circle fill="#ff7f0e" r="7.071067811865475"/><text text-anchor="start" dominant-baseline="text-before-edge" transform="translate(0,-5.55224609375)"><tspan x="9.071067811865476" y="0" dy="0" style="font-family: Arial, sans-serif; font-size: 10px; fill: black; font-weight: bold;">second lumbar dorsal root ganglion</tspan></text></g><g id="pelvic ganglion" transform="translate(455,630.3683381622224)"><circle fill="#2ca02c" r="10"/><text text-anchor="start" dominant-baseline="text-before-edge" transform="translate(0,-5.55224609375)"><tspan x="12" y="0" dy="0" style="font-family: Arial, sans-serif; font-size: 10px; fill: black; font-weight: bold;">pelvic ganglion</tspan></text></g><g id="first sacral dorsal root ganglion" transform="translate(455,649.0282222688876)"><circle fill="#2ca02c" r="7.071067811865475"/><text text-anchor="start" dominant-baseline="text-before-edge" transform="translate(0,-5.55224609375)"><tspan x="9.071067811865476" y="0" dy="0" style="font-family: Arial, sans-serif; font-size: 10px; fill: black; font-weight: bold;">first sacral dorsal root ganglion</tspan></text></g><g id="sixth lumbar dorsal root ganglion" transform="translate(455,664.7648985933322)"><circle fill="#2ca02c" r="7.071067811865475"/><text text-anchor="start" dominant-baseline="text-before-edge" transform="translate(0,-5.55224609375)"><tspan x="9.071067811865476" y="0" dy="0" style="font-family: Arial, sans-serif; font-size: 10px; fill: black; font-weight: bold;">sixth lumbar dorsal root ganglion</tspan></text></g><g id="first lumbar dorsal root ganglion" transform="translate(455,680.5015749177768)"><circle fill="#2ca02c" r="7.071067811865475"/><text text-anchor="start" dominant-baseline="text-before-edge" transform="translate(0,-5.55224609375)"><tspan x="9.071067811865476" y="0" dy="0" style="font-family: Arial, sans-serif; font-size: 10px; fill: black; font-weight: bold;">first lumbar dorsal root ganglion</tspan></text></g><g id="second lumbar dorsal root ganglion" transform="translate(455,696.2382512422213)"><circle fill="#2ca02c" r="7.071067811865475"/><text text-anchor="start" dominant-baseline="text-before-edge" transform="translate(0,-5.55224609375)"><tspan x="9.071067811865476" y="0" dy="0" style="font-family: Arial, sans-serif; font-size: 10px; fill: black; font-weight: bold;">second lumbar dorsal root ganglion</tspan></text></g><g id="inferior mesenteric ganglion" transform="translate(455,711.9749275666659)"><circle fill="#2ca02c" r="7.071067811865475"/><text text-anchor="start" dominant-baseline="text-before-edge" transform="translate(0,-5.55224609375)"><tspan x="9.071067811865476" y="0" dy="0" style="font-family: Arial, sans-serif; font-size: 10px; fill: black; font-weight: bold;">inferior mesenteric ganglion</tspan></text></g><g id="first lumbar dorsal root ganglion" transform="translate(455,727.7116038911105)"><circle fill="#2ca02c" r="7.071067811865475"/><text text-anchor="start" dominant-baseline="text-before-edge" transform="translate(0,-5.55224609375)"><tspan x="9.071067811865476" y="0" dy="0" style="font-family: Arial, sans-serif; font-size: 10px; fill: black; font-weight: bold;">first lumbar dorsal root ganglion</tspan></text></g><g id="second lumbar dorsal root ganglion" transform="translate(455,743.448280215555)"><circle fill="#2ca02c" r="7.071067811865475"/><text text-anchor="start" dominant-baseline="text-before-edge" transform="translate(0,-5.55224609375)"><tspan x="9.071067811865476" y="0" dy="0" style="font-family: Arial, sans-serif; font-size: 10px; fill: black; font-weight: bold;">second lumbar dorsal root ganglion</tspan></text></g><g id="inferior mesenteric ganglion" transform="translate(455,759.1849565399995)"><circle fill="#2ca02c" r="7.071067811865475"/><text text-anchor="start" dominant-baseline="text-before-edge" transform="translate(0,-5.55224609375)"><tspan x="9.071067811865476" y="0" dy="0" style="font-family: Arial, sans-serif; font-size: 10px; fill: black; font-weight: bold;">inferior mesenteric ganglion</tspan></text></g><g id="first sacral dorsal root ganglion" transform="translate(455,774.9216328644442)"><circle fill="#2ca02c" r="7.071067811865475"/><text text-anchor="start" dominant-baseline="text-before-edge" transform="translate(0,-5.55224609375)"><tspan x="9.071067811865476" y="0" dy="0" style="font-family: Arial, sans-serif; font-size: 10px; fill: black; font-weight: bold;">first sacral dorsal root ganglion</tspan></text></g><g id="sixth lumbar dorsal root ganglion" transform="translate(455,790.6583091888887)"><circle fill="#2ca02c" r="7.071067811865475"/><text text-anchor="start" dominant-baseline="text-before-edge" transform="translate(0,-5.55224609375)"><tspan x="9.071067811865476" y="0" dy="0" style="font-family: Arial, sans-serif; font-size: 10px; fill: black; font-weight: bold;">sixth lumbar dorsal root ganglion</tspan></text></g><g id="first lumbar dorsal root ganglion" transform="translate(455,806.3949855133332)"><circle fill="#2ca02c" r="7.071067811865475"/><text text-anchor="start" dominant-baseline="text-before-edge" transform="translate(0,-5.55224609375)"><tspan x="9.071067811865476" y="0" dy="0" style="font-family: Arial, sans-serif; font-size: 10px; fill: black; font-weight: bold;">first lumbar dorsal root ganglion</tspan></text></g><g id="second lumbar dorsal root ganglion" transform="translate(455,822.1316618377778)"><circle fill="#2ca02c" r="7.071067811865475"/><text text-anchor="start" dominant-baseline="text-before-edge" transform="translate(0,-5.55224609375)"><tspan x="9.071067811865476" y="0" dy="0" style="font-family: Arial, sans-serif; font-size: 10px; fill: black; font-weight: bold;">second lumbar dorsal root ganglion</tspan></text></g></g></g></svg>