<svg xmlns="http://www.w3.org/2000/svg" width="650" height="750"><rect width="650" height="750" x="0" y="0" fill="#FFFFFF" id="background"/><g transform="translate(20,10)" id="viz"><g id="links"><path d="M0,365C77.5,365,77.5,365,155,365" fill="none" stroke="#ccc"/><path d="M155,365C232.5,365,232.5,6.636363636363638,310,6.636363636363638" fill="none" stroke="#ccc"/><path d="M155,365C232.5,365,232.5,19.909090909090914,310,19.909090909090914" fill="none" stroke="#ccc"/><path d="M155,365C232.5,365,232.5,33.18181818181819,310,33.18181818181819" fill="none" stroke="#ccc"/><path d="M155,365C232.5,365,232.5,46.4545454545454,310,46.4545454545454" fill="none" stroke="#ccc"/><path d="M155,365C232.5,365,232.5,59.72727272727268,310,59.72727272727268" fill="none" stroke="#ccc"/><path d="M155,365C232.5,365,232.5,72.99999999999996,310,72.99999999999996" fill="none" stroke="#ccc"/><path d="M155,365C232.5,365,232.5,86.27272727272722,310,86.27272727272722" fill="none" stroke="#ccc"/><path d="M155,365C232.5,365,232.5,99.5454545454545,310,99.5454545454545" fill="none" stroke="#ccc"/><path d="M155,365C232.5,365,232.5,112.81818181818176,310,112.81818181818176" fill="none" stroke="#ccc"/><path d="M155,365C232.5,365,232.5,126.090909090909,310,126.090909090909" fill="none" stroke="#ccc"/><path d="M155,365C232.5,365,232.5,139.36363636363626,310,139.36363636363626" fill="none" stroke="#ccc"/><path d="M155,365C232.5,365,232.5,152.63636363636354,310,152.63636363636354" fill="none" stroke="#ccc"/><path d="M155,365C232.5,365,232.5,165.90909090909082,310,165.90909090909082" fill="none" stroke="#ccc"/><path d="M155,365C232.5,365,232.5,179.1818181818181,310,179.1818181818181" fill="none" stroke="#ccc"/><path d="M155,365C232.5,365,232.5,192.45454545454538,310,192.45454545454538" fill="none" stroke="#ccc"/><path d="M155,365C232.5,365,232.5,205.72727272727263,310,205.72727272727263" fill="none" stroke="#ccc"/><path d="M155,365C232.5,365,232.5,218.99999999999991,310,218.99999999999991" fill="none" stroke="#ccc"/><path d="M155,365C232.5,365,232.5,232.2727272727272,310,232.2727272727272" fill="none" stroke="#ccc"/><path d="M155,365C232.5,365,232.5,245.54545454545448,310,245.54545454545448" fill="none" stroke="#ccc"/><path d="M155,365C232.5,365,232.5,258.81818181818176,310,258.81818181818176" fill="none" stroke="#ccc"/><path d="M155,365C232.5,365,232.5,272.090909090909,310,272.090909090909" fill="none" stroke="#ccc"/><path d="M155,365C232.5,365,232.5,285.3636363636363,310,285.3636363636363" fill="none" stroke="#ccc"/><path d="M155,365C232.5,365,232.5,298.63636363636357,310,298.63636363636357" fill="none" stroke="#ccc"/><path d="M155,365C232.5,365,232.5,311.9090909090908,310,311.9090909090908" fill="none" stroke="#ccc"/><path d="M155,365C232.5,365,232.5,325.18181818181813,310,325.18181818181813" fill="none" stroke="#ccc"/><path d="M155,365C232.5,365,232.5,338.4545454545454,310,338.4545454545454" fill="none" stroke="#ccc"/><path d="M155,365C232.5,365,232.5,351.7272727272727,310,351.7272727272727" fill="none" stroke="#ccc"/><path d="M155,365C232.5,365,232.5,364.99999999999994,310,364.99999999999994" fill="none" stroke="#ccc"/><path d="M155,365C232.5,365,232.5,378.2727272727272,310,378.2727272727272" fill="none" stroke="#ccc"/><path d="M155,365C232.5,365,232.5,391.5454545454545,310,391.5454545454545" fill="none" stroke="#ccc"/><path d="M155,365C232.5,365,232.5,404.81818181818176,310,404.81818181818176" fill="none" stroke="#ccc"/><path d="M155,365C232.5,365,232.5,418.09090909090907,310,418.09090909090907" fill="none" stroke="#ccc"/><path d="M155,365C232.5,365,232.5,431.3636363636363,310,431.3636363636363" fill="none" stroke="#ccc"/><path d="M155,365C232.5,365,232.5,444.63636363636357,310,444.63636363636357" fill="none" stroke="#ccc"/><path d="M155,365C232.5,365,232.5,457.9090909090909,310,457.9090909090909" fill="none" stroke="#ccc"/><path d="M155,365C232.5,365,232.5,471.18181818181813,310,471.18181818181813" fill="none" stroke="#ccc"/><path d="M155,365C232.5,365,232.5,484.45454545454544,310,484.45454545454544" fill="none" stroke="#ccc"/><path d="M155,365C232.5,365,232.5,497.7272727272727,310,497.7272727272727" fill="none" stroke="#ccc"/><path d="M155,365C232.5,365,232.5,510.99999999999994,310,510.99999999999994" fill="none" stroke="#ccc"/><path d="M155,365C232.5,365,232.5,524.2727272727273,310,524.2727272727273" fill="none" stroke="#ccc"/><path d="M155,365C232.5,365,232.5,537.5454545454545,310,537.5454545454545" fill="none" stroke="#ccc"/><path d="M155,365C232.5,365,232.5,550.8181818181818,310,550.8181818181818" fill="none" stroke="#ccc"/><path d="M155,365C232.5,365,232.5,564.090909090909,310,564.090909090909" fill="none" stroke="#ccc"/><path d="M155,365C232.5,365,232.5,577.3636363636364,310,577.3636363636364" fill="none" stroke="#ccc"/><path d="M155,365C232.5,365,232.5,590.6363636363636,310,590.6363636363636" fill="none" stroke="#ccc"/><path d="M155,365C232.5,365,232.5,603.9090909090909,310,603.9090909090909" fill="none" stroke="#ccc"/><path d="M155,365C232.5,365,232.5,617.1818181818181,310,617.1818181818181" fill="none" stroke="#ccc"/><path d="M155,365C232.5,365,232.5,630.4545454545454,310,630.4545454545454" fill="none" stroke="#ccc"/><path d="M155,365C232.5,365,232.5,643.7272727272727,310,643.7272727272727" fill="none" stroke="#ccc"/><path d="M155,365C232.5,365,232.5,657,310,657" fill="none" stroke="#ccc"/><path d="M155,365C232.5,365,232.5,670.2727272727273,310,670.2727272727273" fill="none" stroke="#ccc"/><path d="M155,365C232.5,365,232.5,683.5454545454545,310,683.5454545454545" fill="none" stroke="#ccc"/><path d="M155,365C232.5,365,232.5,696.8181818181818,310,696.8181818181818" fill="none" stroke="#ccc"/><path d="M155,365C232.5,365,232.5,710.0909090909091,310,710.0909090909091" fill="none" stroke="#ccc"/><path d="M155,365C232.5,365,232.5,723.3636363636364,310,723.3636363636364" fill="none" stroke="#ccc"/></g><g id="nodes"><g transform="translate(0,365)"><circle fill="#a66fe3" r="5"/><text text-anchor="end" dominant-baseline="text-before-edge" transform="translate(0,0)"><tspan x="-8" y="0" dy="0" style="font-family: Arial, sans-serif; font-size: 10px; fill: black; font-weight: normal;"/></text></g><g id="inferior mesenteric ganglion" transform="translate(155,365)"><circle fill="#a66fe3" r="5"/><text text-anchor="end" dominant-baseline="text-before-edge" transform="translate(0,-5.55224609375)"><tspan x="-8" y="0" dy="0" style="font-family: Arial, sans-serif; font-size: 10px; fill: black; font-weight: normal;">inferior mesenteric ganglion</tspan></text></g><g id="Arteriole in circular muscle layer of descending colon" transform="translate(310,6.636363636363638)"><circle fill="#a66fe3" r="6"/><text text-anchor="start" dominant-baseline="text-before-edge" transform="translate(0,-5.55224609375)"><tspan x="8" y="0" dy="0" style="font-family: Arial, sans-serif; font-size: 10px; fill: black; font-weight: bold;">Arteriole in circular muscle layer of descending colon</tspan></text></g><g id="Arteriole in connective tissue of bladder dome" transform="translate(310,19.909090909090914)"><circle fill="#a66fe3" r="6"/><text text-anchor="start" dominant-baseline="text-before-edge" transform="translate(0,-5.5)"><tspan x="8" y="0" dy="0" style="font-family: Arial, sans-serif; font-size: 10px; fill: black; font-weight: bold;">Arteriole in connective tissue of bladder dome</tspan></text></g><g id="Arteriole in connective tissue of bladder neck" transform="translate(310,33.18181818181819)"><circle fill="#a66fe3" r="6"/><text text-anchor="start" dominant-baseline="text-before-edge" transform="translate(0,-5.5)"><tspan x="8" y="0" dy="0" style="font-family: Arial, sans-serif; font-size: 10px; fill: black; font-weight: bold;">Arteriole in connective tissue of bladder neck</tspan></text></g><g id="Arteriole in lamina propria of mucosa of descending colon" transform="translate(310,46.4545454545454)"><circle fill="#a66fe3" r="6"/><text text-anchor="start" dominant-baseline="text-before-edge" transform="translate(0,-5.55224609375)"><tspan x="8" y="0" dy="0" style="font-family: Arial, sans-serif; font-size: 10px; fill: black; font-weight: bold;">Arteriole in lamina propria of mucosa of descending colon</tspan></text></g><g id="Arteriole in longitudinal muscle layer of descending colon" transform="translate(310,59.72727272727268)"><circle fill="#a66fe3" r="6"/><text text-anchor="start" dominant-baseline="text-before-edge" transform="translate(0,-5.55224609375)"><tspan x="8" y="0" dy="0" style="font-family: Arial, sans-serif; font-size: 10px; fill: black; font-weight: bold;">Arteriole in longitudinal muscle layer of descending colon</tspan></text></g><g id="Arteriole in myenteric nerve plexus of descending colon" transform="translate(310,72.99999999999996)"><circle fill="#a66fe3" r="6"/><text text-anchor="start" dominant-baseline="text-before-edge" transform="translate(0,-5.55224609375)"><tspan x="8" y="0" dy="0" style="font-family: Arial, sans-serif; font-size: 10px; fill: black; font-weight: bold;">Arteriole in myenteric nerve plexus of descending colon</tspan></text></g><g id="Arteriole in serosa of descending colon" transform="translate(310,86.27272727272722)"><circle fill="#a66fe3" r="6"/><text text-anchor="start" dominant-baseline="text-before-edge" transform="translate(0,-5.55224609375)"><tspan x="8" y="0" dy="0" style="font-family: Arial, sans-serif; font-size: 10px; fill: black; font-weight: bold;">Arteriole in serosa of descending colon</tspan></text></g><g id="Arteriole in submucous nerve plexus of descending colon" transform="translate(310,99.5454545454545)"><circle fill="#a66fe3" r="6"/><text text-anchor="start" dominant-baseline="text-before-edge" transform="translate(0,-5.55224609375)"><tspan x="8" y="0" dy="0" style="font-family: Arial, sans-serif; font-size: 10px; fill: black; font-weight: bold;">Arteriole in submucous nerve plexus of descending colon</tspan></text></g><g id="Circular muscle layer of descending colon" transform="translate(310,112.81818181818176)"><circle fill="#a66fe3" r="6"/><text text-anchor="start" dominant-baseline="text-before-edge" transform="translate(0,-5.55224609375)"><tspan x="8" y="0" dy="0" style="font-family: Arial, sans-serif; font-size: 10px; fill: black; font-weight: bold;">Circular muscle layer of descending colon</tspan></text></g><g id="Dome of the Bladder" transform="translate(310,126.090909090909)"><circle fill="#a66fe3" r="6"/><text text-anchor="start" dominant-baseline="text-before-edge" transform="translate(0,-5.5)"><tspan x="8" y="0" dy="0" style="font-family: Arial, sans-serif; font-size: 10px; fill: black; font-weight: bold;">Dome of the Bladder</tspan></text></g><g id="Fourth lumbar ganglion" transform="translate(310,139.36363636363626)"><circle fill="#a66fe3" r="6"/><text text-anchor="start" dominant-baseline="text-before-edge" transform="translate(0,-5.55224609375)"><tspan x="8" y="0" dy="0" style="font-family: Arial, sans-serif; font-size: 10px; fill: black; font-weight: bold;">Fourth lumbar ganglion</tspan></text></g><g id="Intermediolateral nucleus of first lumbar segment" transform="translate(310,152.63636363636354)"><circle fill="#a66fe3" r="6"/><text text-anchor="start" dominant-baseline="text-before-edge" transform="translate(0,-5.55224609375)"><tspan x="8" y="0" dy="0" style="font-family: Arial, sans-serif; font-size: 10px; fill: black; font-weight: bold;">Intermediolateral nucleus of first lumbar segment</tspan></text></g><g id="Intermediolateral nucleus of second lumbar segment" transform="translate(310,165.90909090909082)"><circle fill="#a66fe3" r="6"/><text text-anchor="start" dominant-baseline="text-before-edge" transform="translate(0,-5.55224609375)"><tspan x="8" y="0" dy="0" style="font-family: Arial, sans-serif; font-size: 10px; fill: black; font-weight: bold;">Intermediolateral nucleus of second lumbar segment</tspan></text></g><g id="L1 segment of lumbar spinal cord" transform="translate(310,179.1818181818181)"><circle fill="#a66fe3" r="6"/><text text-anchor="start" dominant-baseline="text-before-edge" transform="translate(0,-5.55224609375)"><tspan x="8" y="0" dy="0" style="font-family: Arial, sans-serif; font-size: 10px; fill: black; font-weight: bold;">L1 segment of lumbar spinal cord</tspan></text></g><g id="L2 segment of lumbar spinal cord" transform="translate(310,192.45454545454538)"><circle fill="#a66fe3" r="6"/><text text-anchor="start" dominant-baseline="text-before-edge" transform="translate(0,-5.55224609375)"><tspan x="8" y="0" dy="0" style="font-family: Arial, sans-serif; font-size: 10px; fill: black; font-weight: bold;">L2 segment of lumbar spinal cord</tspan></text></g><g id="L3 segment of lumbar spinal cord" transform="translate(310,205.72727272727263)"><circle fill="#a66fe3" r="6"/><text text-anchor="start" dominant-baseline="text-before-edge" transform="translate(0,-5.55224609375)"><tspan x="8" y="0" dy="0" style="font-family: Arial, sans-serif; font-size: 10px; fill: black; font-weight: bold;">L3 segment of lumbar spinal cord</tspan></text></g><g id="L4 segment of lumbar spinal cord" transform="translate(310,218.99999999999991)"><circle fill="#a66fe3" r="6"/><text text-anchor="start" dominant-baseline="text-before-edge" transform="translate(0,-5.55224609375)"><tspan x="8" y="0" dy="0" style="font-family: Arial, sans-serif; font-size: 10px; fill: black; font-weight: bold;">L4 segment of lumbar spinal cord</tspan></text></g><g id="L5 segment of lumbar spinal cord" transform="translate(310,232.2727272727272)"><circle fill="#a66fe3" r="6"/><text text-anchor="start" dominant-baseline="text-before-edge" transform="translate(0,-5.55224609375)"><tspan x="8" y="0" dy="0" style="font-family: Arial, sans-serif; font-size: 10px; fill: black; font-weight: bold;">L5 segment of lumbar spinal cord</tspan></text></g><g id="L6 segment of lumbar spinal cord" transform="translate(310,245.54545454545448)"><circle fill="#a66fe3" r="6"/><text text-anchor="start" dominant-baseline="text-before-edge" transform="translate(0,-5.55224609375)"><tspan x="8" y="0" dy="0" style="font-family: Arial, sans-serif; font-size: 10px; fill: black; font-weight: bold;">L6 segment of lumbar spinal cord</tspan></text></g><g id="Lamina propria mucosae of descending colon" transform="translate(310,258.81818181818176)"><circle fill="#a66fe3" r="6"/><text text-anchor="start" dominant-baseline="text-before-edge" transform="translate(0,-5.55224609375)"><tspan x="8" y="0" dy="0" style="font-family: Arial, sans-serif; font-size: 10px; fill: black; font-weight: bold;">Lamina propria mucosae of descending colon</tspan></text></g><g id="Longitudinal muscle layer of descending colon" transform="translate(310,272.090909090909)"><circle fill="#a66fe3" r="6"/><text text-anchor="start" dominant-baseline="text-before-edge" transform="translate(0,-5.55224609375)"><tspan x="8" y="0" dy="0" style="font-family: Arial, sans-serif; font-size: 10px; fill: black; font-weight: bold;">Longitudinal muscle layer of descending colon</tspan></text></g><g id="Myenteric nerve plexus of descending colon" transform="translate(310,285.3636363636363)"><circle fill="#a66fe3" r="6"/><text text-anchor="start" dominant-baseline="text-before-edge" transform="translate(0,-5.55224609375)"><tspan x="8" y="0" dy="0" style="font-family: Arial, sans-serif; font-size: 10px; fill: black; font-weight: bold;">Myenteric nerve plexus of descending colon</tspan></text></g><g id="Peyer's patch" transform="translate(310,298.63636363636357)"><circle fill="#a66fe3" r="6"/><text text-anchor="start" dominant-baseline="text-before-edge" transform="translate(0,-5.55224609375)"><tspan x="8" y="0" dy="0" style="font-family: Arial, sans-serif; font-size: 10px; fill: black; font-weight: bold;">Peyer's patch</tspan></text></g><g id="S1 segment of sacral spinal cord" transform="translate(310,311.9090909090908)"><circle fill="#a66fe3" r="6"/><text text-anchor="start" dominant-baseline="text-before-edge" transform="translate(0,-5.55224609375)"><tspan x="8" y="0" dy="0" style="font-family: Arial, sans-serif; font-size: 10px; fill: black; font-weight: bold;">S1 segment of sacral spinal cord</tspan></text></g><g id="S2 segment of sacral spinal cord" transform="translate(310,325.18181818181813)"><circle fill="#a66fe3" r="6"/><text text-anchor="start" dominant-baseline="text-before-edge" transform="translate(0,-5.55224609375)"><tspan x="8" y="0" dy="0" style="font-family: Arial, sans-serif; font-size: 10px; fill: black; font-weight: bold;">S2 segment of sacral spinal cord</tspan></text></g><g id="S3 segment of sacral spinal cord" transform="translate(310,338.4545454545454)"><circle fill="#a66fe3" r="6"/><text text-anchor="start" dominant-baseline="text-before-edge" transform="translate(0,-5.55224609375)"><tspan x="8" y="0" dy="0" style="font-family: Arial, sans-serif; font-size: 10px; fill: black; font-weight: bold;">S3 segment of sacral spinal cord</tspan></text></g><g id="Serosa of descending colon" transform="translate(310,351.7272727272727)"><circle fill="#a66fe3" r="6"/><text text-anchor="start" dominant-baseline="text-before-edge" transform="translate(0,-5.55224609375)"><tspan x="8" y="0" dy="0" style="font-family: Arial, sans-serif; font-size: 10px; fill: black; font-weight: bold;">Serosa of descending colon</tspan></text></g><g id="Submucosal nerve plexus of descending colon" transform="translate(310,364.99999999999994)"><circle fill="#a66fe3" r="6"/><text text-anchor="start" dominant-baseline="text-before-edge" transform="translate(0,-5.55224609375)"><tspan x="8" y="0" dy="0" style="font-family: Arial, sans-serif; font-size: 10px; fill: black; font-weight: bold;">Submucosal nerve plexus of descending colon</tspan></text></g><g id="Third lumbar ganglion" transform="translate(310,378.2727272727272)"><circle fill="#a66fe3" r="6"/><text text-anchor="start" dominant-baseline="text-before-edge" transform="translate(0,-5.55224609375)"><tspan x="8" y="0" dy="0" style="font-family: Arial, sans-serif; font-size: 10px; fill: black; font-weight: bold;">Third lumbar ganglion</tspan></text></g><g id="White communicating ramus of fourth lumbar anterior ramus" transform="translate(310,391.5454545454545)"><circle fill="#a66fe3" r="6"/><text text-anchor="start" dominant-baseline="text-before-edge" transform="translate(0,-5.55224609375)"><tspan x="8" y="0" dy="0" style="font-family: Arial, sans-serif; font-size: 10px; fill: black; font-weight: bold;">White communicating ramus of fourth lumbar anterior ramus</tspan></text></g><g id="bladder nerve" transform="translate(310,404.81818181818176)"><circle fill="#a66fe3" r="6"/><text text-anchor="start" dominant-baseline="text-before-edge" transform="translate(0,-5.5)"><tspan x="8" y="0" dy="0" style="font-family: Arial, sans-serif; font-size: 10px; fill: black; font-weight: bold;">bladder nerve</tspan></text></g><g id="descending colon" transform="translate(310,418.09090909090907)"><circle fill="#a66fe3" r="6"/><text text-anchor="start" dominant-baseline="text-before-edge" transform="translate(0,-5.55224609375)"><tspan x="8" y="0" dy="0" style="font-family: Arial, sans-serif; font-size: 10px; fill: black; font-weight: bold;">descending colon</tspan></text></g><g id="first lumbar dorsal root ganglion" transform="translate(310,431.3636363636363)"><circle fill="#a66fe3" r="6"/><text text-anchor="start" dominant-baseline="text-before-edge" transform="translate(0,-5.55224609375)"><tspan x="8" y="0" dy="0" style="font-family: Arial, sans-serif; font-size: 10px; fill: black; font-weight: bold;">first lumbar dorsal root ganglion</tspan></text></g><g id="gray communicating ramus of first lumbar nerve" transform="translate(310,444.63636363636357)"><circle fill="#a66fe3" r="6"/><text text-anchor="start" dominant-baseline="text-before-edge" transform="translate(0,-5.55224609375)"><tspan x="8" y="0" dy="0" style="font-family: Arial, sans-serif; font-size: 10px; fill: black; font-weight: bold;">gray communicating ramus of first lumbar nerve</tspan></text></g><g id="gray communicating ramus of fourth lumbar nerve" transform="translate(310,457.9090909090909)"><circle fill="#a66fe3" r="6"/><text text-anchor="start" dominant-baseline="text-before-edge" transform="translate(0,-5.55224609375)"><tspan x="8" y="0" dy="0" style="font-family: Arial, sans-serif; font-size: 10px; fill: black; font-weight: bold;">gray communicating ramus of fourth lumbar nerve</tspan></text></g><g id="gray communicating ramus of second lumbar nerve" transform="translate(310,471.18181818181813)"><circle fill="#a66fe3" r="6"/><text text-anchor="start" dominant-baseline="text-before-edge" transform="translate(0,-5.55224609375)"><tspan x="8" y="0" dy="0" style="font-family: Arial, sans-serif; font-size: 10px; fill: black; font-weight: bold;">gray communicating ramus of second lumbar nerve</tspan></text></g><g id="gray communicating ramus of third lumbar nerve" transform="translate(310,484.45454545454544)"><circle fill="#a66fe3" r="6"/><text text-anchor="start" dominant-baseline="text-before-edge" transform="translate(0,-5.55224609375)"><tspan x="8" y="0" dy="0" style="font-family: Arial, sans-serif; font-size: 10px; fill: black; font-weight: bold;">gray communicating ramus of third lumbar nerve</tspan></text></g><g id="hypogastric nerve" transform="translate(310,497.7272727272727)"><circle fill="#a66fe3" r="6"/><text text-anchor="start" dominant-baseline="text-before-edge" transform="translate(0,-5.55224609375)"><tspan x="8" y="0" dy="0" style="font-family: Arial, sans-serif; font-size: 10px; fill: black; font-weight: bold;">hypogastric nerve</tspan></text></g><g id="lumbar colonic nerve" transform="translate(310,510.99999999999994)"><circle fill="#a66fe3" r="6"/><text text-anchor="start" dominant-baseline="text-before-edge" transform="translate(0,-5.5)"><tspan x="8" y="0" dy="0" style="font-family: Arial, sans-serif; font-size: 10px; fill: black; font-weight: bold;">lumbar colonic nerve</tspan></text></g><g id="lumbar splanchnic nerve" transform="translate(310,524.2727272727273)"><circle fill="#a66fe3" r="6"/><text text-anchor="start" dominant-baseline="text-before-edge" transform="translate(0,-5.5)"><tspan x="8" y="0" dy="0" style="font-family: Arial, sans-serif; font-size: 10px; fill: black; font-weight: bold;">lumbar splanchnic nerve</tspan></text></g><g id="major pelvic ganglion" transform="translate(310,537.5454545454545)"><circle fill="#a66fe3" r="6"/><text text-anchor="start" dominant-baseline="text-before-edge" transform="translate(0,-5.55224609375)"><tspan x="8" y="0" dy="0" style="font-family: Arial, sans-serif; font-size: 10px; fill: black; font-weight: bold;">major pelvic ganglion</tspan></text></g><g id="neck of urinary bladder" transform="translate(310,550.8181818181818)"><circle fill="#a66fe3" r="6"/><text text-anchor="start" dominant-baseline="text-before-edge" transform="translate(0,-5.55224609375)"><tspan x="8" y="0" dy="0" style="font-family: Arial, sans-serif; font-size: 10px; fill: black; font-weight: bold;">neck of urinary bladder</tspan></text></g><g id="pelvic ganglion" transform="translate(310,564.090909090909)"><circle fill="#a66fe3" r="6"/><text text-anchor="start" dominant-baseline="text-before-edge" transform="translate(0,-5.55224609375)"><tspan x="8" y="0" dy="0" style="font-family: Arial, sans-serif; font-size: 10px; fill: black; font-weight: bold;">pelvic ganglion</tspan></text></g><g id="pelvic splanchnic nerve" transform="translate(310,577.3636363636364)"><circle fill="#a66fe3" r="6"/><text text-anchor="start" dominant-baseline="text-before-edge" transform="translate(0,-5.5)"><tspan x="8" y="0" dy="0" style="font-family: Arial, sans-serif; font-size: 10px; fill: black; font-weight: bold;">pelvic splanchnic nerve</tspan></text></g><g id="postganglionic sympathetic fiber" transform="translate(310,590.6363636363636)"><circle fill="#a66fe3" r="6"/><text text-anchor="start" dominant-baseline="text-before-edge" transform="translate(0,-5.55224609375)"><tspan x="8" y="0" dy="0" style="font-family: Arial, sans-serif; font-size: 10px; fill: black; font-weight: bold;">postganglionic sympathetic fiber</tspan></text></g><g id="prostate gland smooth muscle" transform="translate(310,603.9090909090909)"><circle fill="#a66fe3" r="6"/><text text-anchor="start" dominant-baseline="text-before-edge" transform="translate(0,-5.55224609375)"><tspan x="8" y="0" dy="0" style="font-family: Arial, sans-serif; font-size: 10px; fill: black; font-weight: bold;">prostate gland smooth muscle</tspan></text></g><g id="second lumbar dorsal root ganglion" transform="translate(310,617.1818181818181)"><circle fill="#a66fe3" r="6"/><text text-anchor="start" dominant-baseline="text-before-edge" transform="translate(0,-5.55224609375)"><tspan x="8" y="0" dy="0" style="font-family: Arial, sans-serif; font-size: 10px; fill: black; font-weight: bold;">second lumbar dorsal root ganglion</tspan></text></g><g id="ventral root of the first lumbar spinal cord segment" transform="translate(310,630.4545454545454)"><circle fill="#a66fe3" r="6"/><text text-anchor="start" dominant-baseline="text-before-edge" transform="translate(0,-5.55224609375)"><tspan x="8" y="0" dy="0" style="font-family: Arial, sans-serif; font-size: 10px; fill: black; font-weight: bold;">ventral root of the first lumbar spinal cord segment</tspan></text></g><g id="ventral root of the fourth lumbar spinal cord segment" transform="translate(310,643.7272727272727)"><circle fill="#a66fe3" r="6"/><text text-anchor="start" dominant-baseline="text-before-edge" transform="translate(0,-5.55224609375)"><tspan x="8" y="0" dy="0" style="font-family: Arial, sans-serif; font-size: 10px; fill: black; font-weight: bold;">ventral root of the fourth lumbar spinal cord segment</tspan></text></g><g id="ventral root of the second lumbar spinal cord segment" transform="translate(310,657)"><circle fill="#a66fe3" r="6"/><text text-anchor="start" dominant-baseline="text-before-edge" transform="translate(0,-5.55224609375)"><tspan x="8" y="0" dy="0" style="font-family: Arial, sans-serif; font-size: 10px; fill: black; font-weight: bold;">ventral root of the second lumbar spinal cord segment</tspan></text></g><g id="ventral root of the third lumbar spinal cord segment" transform="translate(310,670.2727272727273)"><circle fill="#a66fe3" r="6"/><text text-anchor="start" dominant-baseline="text-before-edge" transform="translate(0,-5.55224609375)"><tspan x="8" y="0" dy="0" style="font-family: Arial, sans-serif; font-size: 10px; fill: black; font-weight: bold;">ventral root of the third lumbar spinal cord segment</tspan></text></g><g id="white communicating ramus of first lumbar spinal nerve" transform="translate(310,683.5454545454545)"><circle fill="#a66fe3" r="6"/><text text-anchor="start" dominant-baseline="text-before-edge" transform="translate(0,-5.55224609375)"><tspan x="8" y="0" dy="0" style="font-family: Arial, sans-serif; font-size: 10px; fill: black; font-weight: bold;">white communicating ramus of first lumbar spinal nerve</tspan></text></g><g id="white communicating ramus of second lumbar spinal nerve" transform="translate(310,696.8181818181818)"><circle fill="#a66fe3" r="6"/><text text-anchor="start" dominant-baseline="text-before-edge" transform="translate(0,-5.55224609375)"><tspan x="8" y="0" dy="0" style="font-family: Arial, sans-serif; font-size: 10px; fill: black; font-weight: bold;">white communicating ramus of second lumbar spinal nerve</tspan></text></g><g id="white communicating ramus of third lumbar spinal nerve" transform="translate(310,710.0909090909091)"><circle fill="#a66fe3" r="6"/><text text-anchor="start" dominant-baseline="text-before-edge" transform="translate(0,-5.55224609375)"><tspan x="8" y="0" dy="0" style="font-family: Arial, sans-serif; font-size: 10px; fill: black; font-weight: bold;">white communicating ramus of third lumbar spinal nerve</tspan></text></g><g id="white matter of spinal cord" transform="translate(310,723.3636363636364)"><circle fill="#a66fe3" r="6"/><text text-anchor="start" dominant-baseline="text-before-edge" transform="translate(0,-5.5)"><tspan x="8" y="0" dy="0" style="font-family: Arial, sans-serif; font-size: 10px; fill: black; font-weight: bold;">white matter of spinal cord</tspan></text></g></g></g></svg>